<svg width="120" height="120" viewBox="0 0 120 120" fill="none" xmlns="http://www.w3.org/2000/svg">
<rect width="120" height="120" rx="12" fill="#E8F0FC"/>
<path d="M23.7478 56.12C25.7878 56.12 27.2518 55.076 27.5038 53.012H25.9438C25.7758 54.224 24.9358 54.824 23.7478 54.824C22.1638 54.824 21.2398 53.684 21.2398 51.752V51.656C21.2398 49.736 22.2238 48.56 23.7358 48.56C24.9718 48.56 25.6078 49.148 25.7878 50.288H27.4078C27.2158 48.272 25.6918 47.288 23.7238 47.288C21.3358 47.288 19.5598 49.088 19.5598 51.668V51.764C19.5598 54.404 21.0598 56.12 23.7478 56.12ZM36.2983 56.12C38.9023 56.12 40.6183 54.236 40.6183 51.728V51.632C40.6183 49.112 38.8543 47.3 36.2983 47.3C33.7543 47.3 31.9543 49.16 31.9543 51.668V51.764C31.9543 54.236 33.6703 56.12 36.2983 56.12ZM36.3223 54.836C34.7623 54.836 33.6223 53.624 33.6223 51.752V51.656C33.6223 49.808 34.6183 48.572 36.2983 48.572C37.9783 48.572 38.9623 49.88 38.9623 51.644V51.74C38.9623 53.6 37.9423 54.836 36.3223 54.836ZM47.7958 47.42H45.6598V56H47.0998V49.52L49.7038 56H50.2198L52.7758 49.52V56H54.3718V47.42H52.2598L50.0518 53.276L47.7958 47.42ZM62.5956 47.42H59.8356V56H61.4316V52.736H62.6316C64.4676 52.736 65.7756 51.932 65.7756 50.12V50.072C65.7756 48.272 64.5156 47.42 62.5956 47.42ZM62.5956 51.584H61.4316V48.656H62.5956C63.6156 48.656 64.2156 49.052 64.2156 50.072V50.12C64.2156 51.068 63.6516 51.584 62.5956 51.584ZM74.3464 47.42H72.2584L69.3904 56H70.8904L71.5624 53.876H74.8384L75.5224 56H77.1784L74.3464 47.42ZM74.4664 52.712H71.9344L73.2064 48.728L74.4664 52.712ZM83.8959 47.42H81.9879V56H83.4399V49.424L87.3039 56H88.9599V47.42H87.5079V53.624L83.8959 47.42ZM93.6493 47.42L96.4933 52.28V56H98.1013V52.292L100.789 47.42H99.2293L97.3453 50.972L95.4133 47.42H93.6493ZM39.7636 62.42H38.1676V71H43.4236V69.728H39.7636V62.42ZM51.8608 71.12C54.4648 71.12 56.1808 69.236 56.1808 66.728V66.632C56.1808 64.112 54.4168 62.3 51.8608 62.3C49.3168 62.3 47.5168 64.16 47.5168 66.668V66.764C47.5168 69.236 49.2328 71.12 51.8608 71.12ZM51.8848 69.836C50.3248 69.836 49.1848 68.624 49.1848 66.752V66.656C49.1848 64.808 50.1808 63.572 51.8608 63.572C53.5408 63.572 54.5248 64.88 54.5248 66.644V66.74C54.5248 68.6 53.5048 69.836 51.8848 69.836ZM65.0743 71.12C67.4983 71.12 68.9863 69.68 68.9863 67.304V66.512H65.2543V67.712H67.4143C67.3663 68.9 66.7063 69.872 65.0983 69.872C63.2983 69.872 62.4463 68.612 62.4463 66.776V66.68C62.4463 64.796 63.4183 63.548 65.0983 63.548C66.2143 63.548 66.9823 64.04 67.1743 65.18H68.7703C68.5423 63.128 66.9103 62.288 65.0743 62.288C62.5663 62.288 60.7903 64.112 60.7903 66.668V66.764C60.7903 69.296 62.3263 71.12 65.0743 71.12ZM77.939 71.12C80.543 71.12 82.259 69.236 82.259 66.728V66.632C82.259 64.112 80.495 62.3 77.939 62.3C75.395 62.3 73.595 64.16 73.595 66.668V66.764C73.595 69.236 75.311 71.12 77.939 71.12ZM77.963 69.836C76.403 69.836 75.263 68.624 75.263 66.752V66.656C75.263 64.808 76.259 63.572 77.939 63.572C79.619 63.572 80.603 64.88 80.603 66.644V66.74C80.603 68.6 79.583 69.836 77.963 69.836Z" fill="#0A2856"/>
</svg>
